# xmcd
#
# Track frame offsets: 
#        150
#        18693
#        38391
#        60884
#        89616
#        110374
#        128251
#        146270
#        166301
#        186001
#        203849
#
# Disc length: 3055 seconds
#
# Revision: 0
# Processed by: cddbd v1.5.2PL0 Copyright (c) Steve Scherf et al.
# Submitted via: ExactAudioCopyFreeDBPlugin 1.0
#
DISCID=810bed0b
DTITLE=The Remus Tucker Band - South of New Orleans
DYEAR=2013
DGENRE=Swamp Rock
TTITLE0=South of New Orleans
TTITLE1=Honky Tonk and Rock and Roll
TTITLE2=Midnight on the Bayou
TTITLE3=Mountains of the Moon
TTITLE4=She's All Out
TTITLE5=Your Love Cuts
TTITLE6=Skinny Remus
TTITLE7=Night Thang
TTITLE8=Snake in the Grass
TTITLE9=Sweet Carolina
TTITLE10=Bury Me on the Banks of the Mississippi
EXTD=
EXTT0=
EXTT1=
EXTT2=
EXTT3=
EXTT4=
EXTT5=
EXTT6=
EXTT7=
EXTT8=
EXTT9=
EXTT10=
PLAYORDER=
